<svg xmlns="http://www.w3.org/2000/svg" viewBox="0 0 40 40">
    <title>
        See me at LinkedIn
    </title>
    <g id="Layer_2" data-name="Layer 2">
        <g id="Layer_1-2" data-name="Layer 1">
            <g id="Layer_2-2" data-name="Layer 2">
                <g id="Layer_1-2-2" data-name="Layer 1-2">
                    <circle id="linkedin-circle" fill="#069" cx="20" cy="20" r="20"/>
                    <path id="linkedin" fill="#fff" d="M13,9.78a2.67,2.67,0,0,1-2.9,2.66,2.67,2.67,0,1,1,.07-5.32A2.64,2.64,0,0,1,13,9.78ZM7.46,31.65V14.54h5.38V31.65Z"/>
                    <path id="linkedin" fill="#fff" d="M16.06,20c0-2.14-.07-3.92-.14-5.46H20.6l.25,2.38H21a6.25,6.25,0,0,1,5.35-2.76c3.54,0,6.2,2.34,6.2,7.38V31.65H27.11V22.16c0-2.2-.78-3.71-2.72-3.71a3,3,0,0,0-2.76,2,3.82,3.82,0,0,0-.18,1.33v9.87H16.06Z"/>
                    <circle id="animate-linkedin-circle" opacity="0" fill="#069" cx="20" cy="20" r="1.5"/>
                </g>
            </g>
        </g>
    </g>
</svg>
