<svg xmlns="http://www.w3.org/2000/svg" xmlns:xlink="http://www.w3.org/1999/xlink" viewBox="0 0 370 425.31">
    <defs>
        <radialGradient id="radial-gradient" cx="253.25" cy="229.81" r="28.14" gradientTransform="matrix(1, -0.02, 0.01, 0.62, -2.62, 91.82)" gradientUnits="userSpaceOnUse">
            <stop offset="0" stop-color="#ff5a48"/>
            <stop offset="1" stop-color="#ff7f48" stop-opacity="0"/>
        </radialGradient>
        <radialGradient id="radial-gradient-2" cx="113.25" cy="232.81" r="28.14" gradientTransform="matrix(1, -0.02, 0.01, 0.62, -2.68, 90.34)" xlink:href="#radial-gradient"/>
        <style>
            .cls-1,.cls-10{fill:#ccc}.cls-1{opacity:.6}.cls-2{fill:#333}.cls-4{fill:#ffd4ad}.cls-5,.cls-7{fill:#ffc39b}.cls-5{opacity:.82}.cls-20,.cls-21,.cls-6{fill:#ff9257}.cls-6{opacity:.41}.cls-10{opacity:.2}.cls-11,.cls-9{fill:#fff}.cls-11{opacity:.5}.cls-12{fill:#ffbda0}.cls-24,.cls-25{fill:none;stroke-miterlimit:10}.cls-15,.cls-21,.cls-25{opacity:.8}.cls-16{fill:#1a1a1a}.cls-20{opacity:.65}.cls-24{stroke:#e6e6e6;stroke-linecap:round;stroke-width:3px}.cls-25{stroke:#ff9257;stroke-width:2px}
        </style>
    </defs>
    <title>
        Asset 1
    </title>
    <g id="Layer_2" data-name="Layer 2">
        <g id="Layer_1-2" data-name="Layer 1">
            <path class="cls-1" d="M370,240.31c0-102.17-82.83-185-185-185S0,138.14,0,240.31a185.07,185.07,0,0,0,116.82,172,28.15,28.15,0,0,1-3.32-13.29v-1.19a55.92,55.92,0,0,1,55.76-55.76h28.48a55.92,55.92,0,0,1,55.76,55.76v1.19a28.27,28.27,0,0,1-4.15,14.76A185.08,185.08,0,0,0,370,240.31Z"/>
            <path class="cls-1" d="M253.5,397.86a55.92,55.92,0,0,0-55.76-55.76H169.26a55.92,55.92,0,0,0-55.76,55.76v1.19a28.15,28.15,0,0,0,3.32,13.29,185.74,185.74,0,0,0,132.53,1.47,28.27,28.27,0,0,0,4.15-14.76Z"/>
            <path class="cls-2" d="M253.5,397.86a55.92,55.92,0,0,0-55.76-55.76H169.26a55.92,55.92,0,0,0-55.76,55.76v1.19a28.15,28.15,0,0,0,3.32,13.29,185.74,185.74,0,0,0,132.53,1.47,28.27,28.27,0,0,0,4.15-14.76Z"/>
            <path d="M68.5,108.81c-23,0-24-19-24-19,8,6,13,15,26-12s45,12,45,12c-33-30,92-98,78-89s-23,75-23,75c-26-16,49-62,49-62s-11,46-2,40,8-25,8-25c12,22-4,38-4,38-9-24,57-46,57-46-14,10-21,44-21,44-1-27,62-38,53-37s-28,81-14,79,16-5,16-5-2,11-9,15-4,11,1,13,3,10,3,10-6-10-8-1l-5,88H76.5s-2,0-5-2a12,12,0,0,1-4-4c5,2,5.5-8,5.5-8,2.5-1-3.5,0-3.5,0,1-1,4-10,2-8a3.53,3.53,0,0,1-4,1s4-6,1-4-5,1-5,1c4-2,3-7,3-7-3-1-5,6-5,6-1-7,5-8,5-8-6,3-14-1-14-1,10,2,5-15,5-15-8,5-30-9-30-9,3,0,7-1,13-3s10-9,10-9c-6-1-16,7-16,7,3-10,15-13,15-13-1,3-12-8-12-8,9,3,20-9,20-9-11,6-29,4-29,4,17-10,23-38,45-34" style="fill:#1b1b1b"/>
            <path class="cls-4" d="M299.5,168.81h0a31,31,0,0,1,31,31v11a31,31,0,0,1-31,31h0a23,23,0,0,1-23-23v-27A23,23,0,0,1,299.5,168.81Z" transform="translate(26.08 -34.07) rotate(6.71)"/>
            <path class="cls-5" d="M294.56,182h8a16,16,0,0,1,16,16v12.86a16,16,0,0,1-16,16h-8a14,14,0,0,1-14-14v-17a14,14,0,0,1,14-14Z" transform="translate(25.95 -33.62) rotate(6.71)"/>
            <rect class="cls-6" x="284.66" y="198.78" width="19.06" height="28.39" rx="7.5" ry="7.5" transform="translate(26.91 -32.93) rotate(6.71)"/>
            <path class="cls-4" d="M60.5,168.81h0a31,31,0,0,1,31,31v11a31,31,0,0,1-31,31h0a23,23,0,0,1-23-23v-27A23,23,0,0,1,60.5,168.81Z" transform="translate(129 410.63) rotate(-180)"/>
            <path class="cls-5" d="M63.48,182.43h8a16,16,0,0,1,16,16v12.86a16,16,0,0,1-16,16h-8a14,14,0,0,1-14-14v-17a14,14,0,0,1,14-14Z" transform="translate(137 409.76) rotate(-180)"/>
            <rect class="cls-6" x="62.5" y="199.81" width="19.06" height="28.39" rx="7.5" ry="7.5" transform="translate(144.06 428.01) rotate(-180)"/>
            <rect class="cls-7" x="153.5" y="292.81" width="61" height="83" rx="15.5" ry="15.5"/>
            <path class="cls-6" d="M199,298.81H169a15.5,15.5,0,0,0-15.5,15.5v1.89a95,95,0,0,0,14.5,1.11h32a95,95,0,0,0,14.5-1.11v-1.89A15.5,15.5,0,0,0,199,298.81Z"/>
            <rect class="cls-4" x="74.5" y="89.81" width="222" height="222" rx="95" ry="95"/>
            <path d="M200.5,307.81h-32c-52.25,0-95-42.75-95-95v-32a94.74,94.74,0,0,1,.72-11.61A94.22,94.22,0,0,0,73,184.31v32c0,52.25,42.75,95,95,95h32c48.32,0,88.51-36.56,94.28-83.38C287,273.06,247.61,307.81,200.5,307.81Z" style="opacity:.2;fill:#ffac65"/>
            <rect class="cls-9" x="109.5" y="142.81" width="61" height="68" rx="30.5" ry="30.5"/>
            <path class="cls-10" d="M140,142.81a30.59,30.59,0,0,0-30.5,30.5v3a30.5,30.5,0,0,1,61,0v-3A30.59,30.59,0,0,0,140,142.81Z"/>
            <rect class="cls-2" x="123.5" y="158.81" width="33.5" height="37" rx="16" ry="16"/>
            <circle cx="140.5" cy="177.81" r="9"/>
            <circle class="cls-9" cx="149.5" cy="176.81" r="1"/>
            <circle class="cls-11" cx="146" cy="170.31" r="3.5"/>
            <rect class="cls-9" x="203.5" y="144.81" width="61" height="68" rx="30.5" ry="30.5"/>
            <path class="cls-10" d="M234,144.81a30.59,30.59,0,0,0-30.5,30.5v3a30.5,30.5,0,0,1,61,0v-3A30.59,30.59,0,0,0,234,144.81Z"/>
            <rect class="cls-2" x="217.5" y="160.81" width="33.5" height="37" rx="16" ry="16"/>
            <circle cx="234.5" cy="179.81" r="9"/>
            <circle class="cls-9" cx="243.5" cy="178.81" r="1"/>
            <circle class="cls-11" cx="240" cy="172.31" r="3.5"/>
            <path class="cls-12" d="M178.84,203.15l-4,7a10,10,0,0,0,8.66,15h8.08a10,10,0,0,0,8.66-15l-4-7A10,10,0,0,0,178.84,203.15Z"/>
            <path d="M178.84,202.15l-4,7a10,10,0,0,0,8.66,15h8.08a10,10,0,0,0,8.66-15l-4-7A10,10,0,0,0,178.84,202.15Z" style="fill:#ff7d4c;opacity:.35"/>
            <path d="M141.5,183.31h-3" style="stroke-miterlimit:10;stroke:#000;fill:none"/>
            <g class="cls-15">
                <path class="cls-16" d="M164.51,143.89a2.49,2.49,0,0,1-2.34-1.64,22.09,22.09,0,0,0-20.67-14.44h-3a21.93,21.93,0,0,0-20.41,13.77,2.5,2.5,0,1,1-4.63-1.88,26.88,26.88,0,0,1,25-16.89h3a27.09,27.09,0,0,1,25.36,17.72,2.5,2.5,0,0,1-1.49,3.21A2.55,2.55,0,0,1,164.51,143.89Z"/>
            </g>
            <g class="cls-15">
                <path class="cls-16" d="M258.51,143.89a2.49,2.49,0,0,1-2.34-1.64,22.09,22.09,0,0,0-20.67-14.44h-3a21.93,21.93,0,0,0-20.41,13.77,2.5,2.5,0,1,1-4.63-1.88,26.88,26.88,0,0,1,25-16.89h3a27.09,27.09,0,0,1,25.36,17.72,2.5,2.5,0,0,1-1.49,3.21A2.55,2.55,0,0,1,258.51,143.89Z"/>
            </g>
            <path d="M155.91,249.13S175,266.31,198,262.31s26.88-15.75,26.88-15.75S190.82,267,155.91,249.13Z" style="fill:#ff7f48"/>
            <rect class="cls-9" x="186.5" y="254.81" width="5" height="5" rx="1.58" ry="1.58"/>
            <rect class="cls-9" x="191.5" y="254.81" width="5" height="5" rx="1.58" ry="1.58"/>
            <rect class="cls-9" x="176.5" y="253.81" width="5" height="5" rx="1.58" ry="1.58"/>
            <rect class="cls-9" x="181.5" y="253.81" width="5" height="5" rx="1.58" ry="1.58"/>
            <rect class="cls-9" x="206.64" y="251.63" width="5" height="5" rx="1.58" ry="1.58" transform="translate(-71.29 81.84) rotate(-18.98)"/>
            <rect class="cls-9" x="211.36" y="250" width="5" height="5" rx="1.58" ry="1.58" transform="translate(-70.5 83.29) rotate(-18.98)"/>
            <rect class="cls-9" x="196.5" y="253.81" width="5" height="5" rx="1.58" ry="1.58"/>
            <path class="cls-9" d="M168.47,255.6l1.73.58a1.58,1.58,0,0,0,1.93-.82c-1.65-.25-3.21-.53-4.69-.86A1.58,1.58,0,0,0,168.47,255.6Z"/>
            <path class="cls-9" d="M173.2,257.19l1.74.58a1.59,1.59,0,0,0,2-1l.28-.82c-1.76-.16-3.46-.35-5.06-.59A1.58,1.58,0,0,0,173.2,257.19Z"/>
            <path class="cls-12" d="M172.13,255.36h0a1.16,1.16,0,0,1,0-.18A1.42,1.42,0,0,1,172.13,255.36Z"/>
            <path class="cls-12" d="M173.59,252.53l-.81-.11a1.55,1.55,0,0,1,0,1A1.6,1.6,0,0,1,173.59,252.53Z"/>
            <path class="cls-9" d="M203.08,255.81h1.84a1.58,1.58,0,0,0,1.58-1.58v-.1c-1.54.33-3.14.62-4.78.89A1.57,1.57,0,0,0,203.08,255.81Z"/>
            <path class="cls-9" d="M216.07,251.81a1.59,1.59,0,0,0,2,1l1.74-.6a1.59,1.59,0,0,0,1-2l-.09-.25q-2.19.85-4.71,1.67Z"/>
            <path class="cls-12" d="M215.79,248.51a90.6,90.6,0,0,1-9.86,2.68,1.56,1.56,0,0,1,.57,1.21v1.73a96,96,0,0,0,9.5-2.53l-.53-1.53A1.59,1.59,0,0,1,215.79,248.51Z"/>
            <path class="cls-12" d="M230.4,243.76a1.52,1.52,0,0,0-2-.61,75.9,75.9,0,0,1-9.43,4.25,1.57,1.57,0,0,1,1.27,1l.51,1.48a80.63,80.63,0,0,0,9.08-4.13A1.51,1.51,0,0,0,230.4,243.76Z"/>
            <path class="cls-12" d="M218.93,247.4c-1,.38-2,.75-3.14,1.11a1.59,1.59,0,0,0-.32,1.56l.53,1.53q2.52-.81,4.71-1.67l-.51-1.48A1.57,1.57,0,0,0,218.93,247.4Z"/>
            <path class="cls-12" d="M201.5,252.4a1.75,1.75,0,0,1,.05-.4,98.54,98.54,0,0,1-16.05,1.31,88.71,88.71,0,0,1-9.61-.5l.64.22a1.59,1.59,0,0,1,1,2l-.3.91c2.58.22,5.32.36,8.27.36A102.27,102.27,0,0,0,201.72,255a1.54,1.54,0,0,1-.22-.79Z"/>
            <path class="cls-12" d="M205.93,251.19q-2.12.45-4.38.81a1.75,1.75,0,0,0-.05.4v1.83a1.54,1.54,0,0,0,.22.79c1.64-.27,3.24-.56,4.78-.89V252.4A1.56,1.56,0,0,0,205.93,251.19Z"/>
            <path class="cls-12" d="M176.53,253l-.64-.22c-.79-.08-1.54-.18-2.3-.28a1.6,1.6,0,0,0-.8.91l-.58,1.74a1.16,1.16,0,0,0,0,.18c1.6.24,3.3.43,5.06.59l.3-.91A1.59,1.59,0,0,0,176.53,253Z"/>
            <path class="cls-12" d="M167.47,253.59l.58-1.74a1.15,1.15,0,0,1,.12-.25A49.22,49.22,0,0,1,152,245.29a1.5,1.5,0,0,0-1.62,2.53,52.15,52.15,0,0,0,17.05,6.68A1.57,1.57,0,0,1,167.47,253.59Z"/>
            <path class="cls-12" d="M172.79,253.44a1.55,1.55,0,0,0,0-1c-1.62-.23-3.16-.51-4.61-.82a1.15,1.15,0,0,0-.12.25l-.58,1.74a1.57,1.57,0,0,0,0,.91c1.48.33,3,.61,4.69.86a1.42,1.42,0,0,0,.08-.18Z"/>
            <ellipse cx="253.25" cy="229.81" rx="32.25" ry="23.31" style="fill:url(#radial-gradient);opacity:.45"/>
            <ellipse cx="113.25" cy="232.81" rx="32.25" ry="23.31" style="fill:url(#radial-gradient-2);opacity:.45"/>
            <circle class="cls-6" cx="118" cy="246.31" r="2.5"/>
            <circle class="cls-20" cx="105" cy="240.31" r="2.5"/>
            <circle class="cls-20" cx="108" cy="255.31" r="0.5"/>
            <circle class="cls-6" cx="117" cy="253.31" r="1.5"/>
            <circle class="cls-21" cx="126" cy="246.31" r="1.5"/>
            <circle class="cls-6" cx="126" cy="249.31" r="0.5"/>
            <circle class="cls-6" cx="259" cy="242.31" r="2.5"/>
            <circle class="cls-20" cx="246" cy="236.31" r="2.5"/>
            <circle class="cls-20" cx="249" cy="251.31" r="0.5"/>
            <circle class="cls-6" cx="258" cy="249.31" r="1.5"/>
            <circle class="cls-21" cx="267" cy="242.31" r="1.5"/>
            <circle class="cls-6" cx="267" cy="245.31" r="0.5"/>
            <path class="cls-2" d="M104.5,89.81s-20-20-24-13-12,17-12,17S82.5,71.81,104.5,89.81Z"/>
            <path class="cls-2" d="M118.5,80.81s-4-28,49-57c0,0-12,44-5,49C162.5,72.81,138.5,33.81,118.5,80.81Z"/>
            <path class="cls-2" d="M241.57,90s-1-28.27,54.86-51.39c0,0-16.67,42.45-10.25,48.18C286.18,86.8,266.52,45.44,241.57,90Z"/>
            <path class="cls-2" d="M210.5,26.81s-11,29-3,35-1,0-1,0-3-18-18-4C188.5,57.81,180.5,45.81,210.5,26.81Z"/>
            <path class="cls-2" d="M103.77,105.63s-35,11.16-37.57,54.1c0,0-14.07-36.28-.29-45.18S103.77,105.63,103.77,105.63Z"/>
            <text transform="translate(147.5 412.31)" style="font-size:19px;stroke:#1a1a1a;stroke-width:.5px;font-family:Montserrat-Black,Montserrat;stroke-miterlimit:10;fill:#fff">
                Richa<tspan x="57.51" y="0" style="letter-spacing:0">r</tspan><tspan x="66.08" y="0">d</tspan>
            </text>
            <path class="cls-16" d="M212,322.81H158a18.56,18.56,0,0,0-18.5,18.5h0a18.4,18.4,0,0,0,3.36,10.59L174.08,406a12,12,0,0,0,20.84,0l29.38-50.89a18.44,18.44,0,0,0,6.2-13.76h0A18.56,18.56,0,0,0,212,322.81Z"/>
            <path class="cls-2" d="M212,317.81H158a18.56,18.56,0,0,0-18.5,18.5h0a18.4,18.4,0,0,0,3.36,10.59L174.08,401a12,12,0,0,0,20.84,0l29.38-50.89a18.44,18.44,0,0,0,6.2-13.76h0A18.56,18.56,0,0,0,212,317.81Z"/>
            <path class="cls-7" d="M153.5,317.81h61a0,0,0,0,1,0,0v2.08a25.92,25.92,0,0,1-25.92,25.92h-9.15a25.92,25.92,0,0,1-25.92-25.92v-2.08A0,0,0,0,1,153.5,317.81Z"/>
            <path class="cls-16" d="M188.58,345.81h-9.16a25.92,25.92,0,0,1-25.92-25.92v2a25.92,25.92,0,0,0,25.92,25.92h9.16a25.92,25.92,0,0,0,25.92-25.92v-2A25.92,25.92,0,0,1,188.58,345.81Z"/>
            <line class="cls-24" x1="199.5" y1="367.81" x2="199.5" y2="412.81"/>
            <path class="cls-24" d="M167,367.31s1,53-16,26"/>
            <circle class="cls-25" cx="126" cy="168.31" r="55"/>
            <circle class="cls-25" cx="249" cy="168.31" r="55"/>
            <line class="cls-25" x1="181" y1="168.31" x2="194" y2="168.31"/>
        </g>
    </g>
</svg>
