<svg xmlns="http://www.w3.org/2000/svg" viewBox="0 0 40 40.13">
    <defs>
        <style>
            .cls-3{fill:none;stroke:#1da1f2;stroke-linecap:round;stroke-miterlimit:10;stroke-width:.75px}
        </style>
    </defs>
    <title>
        twitter-logo
    </title>
    <g id="Layer_2" data-name="Layer 2">
        <g id="Logo_FIXED" data-name="Logo — FIXED">
            <circle id="twitter-circle" fill="#1da1f2" cx="20" cy="20.13" r="20"/>
            <path id="twitter" d="M16.34,30.67A13.62,13.62,0,0,0,30.06,17c0-.21,0-.42,0-.63a9.83,9.83,0,0,0,2.41-2.49,9.79,9.79,0,0,1-2.77.76,4.85,4.85,0,0,0,2.12-2.67,9.76,9.76,0,0,1-3.06,1.17,4.82,4.82,0,0,0-8.34,3.3,5,5,0,0,0,.12,1.1,13.69,13.69,0,0,1-9.93-5,4.74,4.74,0,0,0-.66,2.42,4.83,4.83,0,0,0,2.15,4,4.91,4.91,0,0,1-2.19-.61v.06a4.83,4.83,0,0,0,3.87,4.73,4.81,4.81,0,0,1-1.27.17,4.6,4.6,0,0,1-.91-.09,4.84,4.84,0,0,0,4.51,3.35,9.7,9.7,0,0,1-6,2.07A10.92,10.92,0,0,1,9,28.51a13.62,13.62,0,0,0,7.39,2.16" style="fill:#fff"/>
            <circle id="animate-twitter-circle" opacity="0"  fill="#1da1f2" cx="20" cy="20.13" r="2.5"/>
        </g>
    </g>
</svg>
